<svg width="397" height="71" viewBox="0 0 397 71" fill="none" xmlns="http://www.w3.org/2000/svg">
<path d="M68.2094 39.8701C68.0934 32.1561 73.9514 26.4721 81.5494 26.4721C85.9574 26.4721 87.5234 29.0241 88.1614 32.0401C90.1334 41.1461 89.8434 43.2921 95.8174 43.2921V45.6121C95.8174 47.5261 94.9474 48.4541 93.0334 48.4541C88.5674 48.4541 87.3494 45.9021 87.0014 39.4641L86.5954 32.0401C84.9714 31.7501 82.7094 31.5761 81.4914 31.5761C76.5034 31.5761 68.9054 34.3601 68.8474 39.4061L79.6934 42.5961C82.0714 43.2921 83.0574 44.8581 82.4774 47.2941L81.4334 51.7601C76.5034 53.6161 61.4234 57.2121 45.1254 57.2121C31.9014 57.2121 16.0094 54.8341 8.06341 50.8321L0.00141097 42.8861L0.581411 41.9581C13.0514 49.7301 32.2494 52.2241 45.6474 52.2241C59.9154 52.2241 75.9234 49.3821 81.7814 47.5841L72.9074 45.3221C69.8334 44.5681 68.2674 42.6541 68.2094 39.8701ZM50.9834 67.3621L47.6774 70.6681L44.4874 67.4201L41.2394 70.6681L37.9914 67.3621V66.8981L41.2394 63.5921L44.4874 66.8401L47.6774 63.5921L50.9834 66.8981V67.3621ZM91.3197 43.2921H92.1317C97.9897 34.8241 105.53 27.4581 113.418 27.4581C121.712 27.4581 125.772 35.4621 123.104 39.9281L121.654 42.4221C123.51 43.0021 125.83 43.2921 128.962 43.2921V45.6121C128.962 47.4681 127.976 48.4541 126.12 48.4541C122.466 48.4541 119.566 47.5841 117.246 46.1341C111.446 47.5261 103.848 48.4541 96.7717 48.4541H91.3197V43.2921ZM93.1757 43.2921H100.136C109.068 43.2921 116.898 42.3641 122.234 40.2181C120.668 36.5641 117.42 31.7501 110.112 31.7501C103.5 31.7501 98.2217 35.6941 93.1757 43.2921ZM161.882 48.4541C154.458 48.4541 152.776 45.5541 152.544 40.1601H151.616C145.7 40.1601 144.946 40.5081 141.93 43.2341C136.536 48.2221 129.808 48.4541 124.414 48.4541V46.1341C124.414 44.2781 125.4 43.2921 127.256 43.2921H128.532C136.362 43.2921 142.684 41.3201 148.89 38.4781C143.612 36.0421 139.262 31.9821 134.216 31.9821C131.606 31.9821 127.72 33.0841 127.488 33.0841L127.314 32.7361L128.358 29.6041C129.634 28.6761 131.722 27.4001 134.622 27.4001C142.046 27.4001 144.83 35.8681 157.126 35.8681H159.968L160.2 36.2161L158.634 40.1601H153.298C153.588 42.9441 155.27 43.2921 164.724 43.2921V45.6121C164.724 47.4681 163.738 48.4541 161.882 48.4541ZM137.986 17.6561L134.68 20.9621L131.432 17.6561V17.1921L134.68 13.8861L137.986 17.1921V17.6561ZM187.13 0.000101417H187.478C188.116 1.0441 188.812 2.6681 188.812 4.2921C188.812 6.8441 187.014 8.5841 185.042 8.5841C183.07 8.5841 182.258 6.9021 182.374 5.4521C181.968 7.3081 180.576 9.1641 178.43 9.1641C176.052 9.1641 175.298 6.9021 175.994 4.6401L176.574 2.7841H176.922C176.458 5.6261 177.386 6.6701 179.01 6.6701C181.562 6.6701 182.664 4.2341 183.244 2.2041H183.65C183.476 4.8721 183.94 6.4381 186.144 6.4381C186.55 6.4381 187.188 6.3801 187.884 6.2641C187.884 5.1041 187.188 3.3641 186.202 1.8561L187.13 0.000101417ZM199.492 48.4541C195.49 48.4541 192.474 46.9461 191.662 42.9441L189.864 47.5261L180.178 45.6121C179.308 46.7721 177.684 48.4541 173.914 48.4541C170.724 48.4541 168.114 47.2361 165.91 44.8001L164.576 47.0621C162.72 48.1641 160.748 48.4541 158.486 48.4541V46.1341C158.486 44.2201 159.414 43.2921 161.328 43.2921C163.242 43.2921 164.402 43.1181 165.562 42.6541L169.506 36.5061L170.434 37.1441L168.056 41.1461C170.724 42.7121 174.088 43.5241 175.944 43.5241C177.568 43.5241 179.482 42.9441 180.99 41.9001L183.078 34.6501L184.238 34.8821L182.382 41.2621L191.082 42.8281L192.01 32.9681H192.88V37.1441C192.88 42.7121 197.752 43.2921 202.276 43.2921V45.6701C202.276 47.5261 201.348 48.4541 199.492 48.4541ZM187.138 23.6881L183.832 26.9941L180.642 23.7461L177.394 26.9941L174.146 23.6881V23.2241L177.394 19.9181L180.642 23.1661L183.832 19.9181L187.138 23.2241V23.6881ZM183.832 16.7861L180.642 19.9761L177.51 16.7861V16.4381L180.642 13.2481L183.832 16.4381V16.7861ZM207.73 5.8241L209.18 15.8001L207.904 17.8301V24.4421C207.904 32.0401 207.73 40.4501 204.54 46.9461C202.858 47.8161 200.48 48.4541 197.754 48.4541V46.1341C197.754 44.2201 198.682 43.2921 200.596 43.2921C201.64 43.2921 202.742 43.2921 205.352 43.0021L204.366 10.0001L207.15 5.8241H207.73ZM218.408 5.8241L219.858 15.8001L218.524 17.9461V37.7241C218.524 38.8841 218.408 40.0441 218.234 41.2041L216.726 49.3821H215.972L215.102 9.9421L217.828 5.8241H218.408ZM236.608 37.3181C251.05 45.7861 267.696 48.0481 282.08 48.0481C293.738 48.0481 304.12 46.5981 312.53 44.2201C310.326 42.4801 308.934 40.0441 308.934 36.7381C308.934 30.1261 314.328 24.6741 320.07 24.6741C325.058 24.6741 328.248 28.8501 328.248 33.8961C328.248 38.1301 325.986 40.6241 322.854 42.8281C325.754 43.1761 329.176 43.2921 333.236 43.2921V45.6121C333.236 47.4681 332.25 48.4541 330.394 48.4541C325.754 48.4541 320.476 47.9901 316.358 46.3081C308.702 49.8461 294.202 52.9781 279.354 52.9781C266.478 52.9781 254.878 50.6001 244.322 46.4241L236.26 37.7821L236.608 37.3181ZM323.376 14.9881L320.07 18.2941L316.822 14.9881V14.5241L320.07 11.2181L323.376 14.5241V14.9881ZM309.514 35.8681C311.66 39.1741 314.502 41.0881 318.91 42.1321L326.276 38.8261C327.436 33.8961 323.608 29.1401 318.504 29.1401C314.676 29.1401 310.964 31.8661 309.514 35.8681ZM344.258 48.4541C341.184 48.4541 339.154 46.8881 338.11 43.7561L336.196 47.3521C335.094 47.9901 332.194 48.4541 328.714 48.4541V46.1341C328.714 44.2781 329.7 43.2921 331.556 43.2921C334.746 43.2921 336.428 43.1181 337.82 42.8281C337.414 41.4361 337.182 39.7541 337.124 37.8401L335.906 10.4061L338.98 5.8241H339.56V38.2461C339.56 43.0021 343.272 43.2921 347.1 43.2921V45.6121C347.1 47.4681 346.114 48.4541 344.258 48.4541ZM352.758 38.9421L354.034 36.4481C355.774 33.0841 358.5 27.9221 363.314 27.9221C371.55 27.9221 369.056 43.2921 378.858 43.2921V47.2941C378.278 47.5261 376.654 48.2221 376.074 48.4541C373.754 48.4541 372.188 47.0621 370.97 45.1481L369.288 49.1501C363.778 48.5121 359.312 47.2361 355.02 45.4961C353.628 44.9161 352.7 44.1041 352.294 43.1181L350.032 47.3521C348.93 47.9901 346.03 48.4541 342.55 48.4541V46.1341C342.55 44.2781 343.536 43.2921 345.392 43.2921C348.988 43.2921 350.67 43.1181 352.12 42.6541C351.83 41.6101 352.062 40.3341 352.758 38.9421ZM353.164 39.5221C357.63 41.4361 363.488 43.6401 370.564 44.5101C367.78 39.6381 366.62 32.0401 361.458 32.0401C358.848 32.0401 356.296 34.0701 353.164 39.5221ZM384.318 5.8241L385.768 15.8001L384.492 17.8301V24.4421C384.492 32.0401 384.318 40.4501 381.128 46.9461C379.446 47.8161 377.068 48.4541 374.342 48.4541V46.1341C374.342 44.2201 375.27 43.2921 377.184 43.2921C378.228 43.2921 379.33 43.2921 381.94 43.0021L380.954 10.0001L383.738 5.8241H384.318ZM394.995 5.8241L396.445 15.8001L395.111 17.9461V37.7241C395.111 38.8841 394.995 40.0441 394.821 41.2041L393.313 49.3821H392.559L391.689 9.9421L394.415 5.8241H394.995Z" fill="url(#paint0_linear_1399_16)"/>
<defs>
<linearGradient id="paint0_linear_1399_16" x1="-136.205" y1="41.3739" x2="386.664" y2="50.04" gradientUnits="userSpaceOnUse">
<stop stop-color="#B3BE86"/>
<stop offset="1" stop-color="#454B26"/>
</linearGradient>
</defs>
</svg>
